<svg width="190" height="41" viewBox="0 0 190 41" fill="none" xmlns="http://www.w3.org/2000/svg">
<path d="M126.012 18.6468L126.127 16.7939C126.358 16.9095 126.704 16.9095 127.051 16.9095C128.668 16.9095 128.783 14.4775 128.783 7.52815H136.407V18.6468H134.097V9.38137H130.863C130.863 15.4042 130.632 18.7627 127.629 18.7627C127.051 18.8784 126.474 18.7627 126.012 18.6468ZM139.063 7.6441H141.258V11.6977C141.258 12.8559 141.143 14.9407 141.143 15.9829L145.878 7.64377H148.304V18.7627H146.109V14.7091C146.109 13.5509 146.224 11.4661 146.224 10.4239L141.489 18.7627H139.063V7.6441H139.063ZM150.151 18.5308L150.382 16.562C151.191 17.0251 152.23 17.1411 153.154 17.1411C154.194 17.1411 155.464 16.9095 155.464 15.5194C155.464 14.0137 153.847 13.8978 152.808 13.8978C152.577 13.8978 152.346 13.8978 151.999 13.8978V12.1605C152.23 12.1605 152.461 12.1605 152.577 12.1605C153.616 12.1605 155.349 11.929 155.349 10.5389C155.349 9.38071 154.194 9.14914 153.27 9.14914C152.461 9.14914 151.306 9.38071 150.613 9.61228L150.382 7.87502C151.306 7.64345 152.577 7.41188 153.616 7.41188C155.811 7.41188 157.543 8.22253 157.543 10.3073C157.543 11.4655 156.735 12.3921 155.464 12.7393C156.85 12.9709 157.774 14.1294 157.774 15.4032C157.774 17.8355 155.926 18.7618 153.385 18.7618C152.23 18.9943 151.075 18.7627 150.151 18.5308ZM159.969 7.6441H162.164V11.6977C162.164 12.8559 162.048 14.9407 162.048 15.9829L166.784 7.64377H169.21V18.7627H167.015V14.7091C167.015 13.5509 167.13 11.4661 167.13 10.4239L162.395 18.7627H159.969V7.6441ZM171.981 7.6441H174.291V12.0452H178.68V7.6441H180.99V18.7627H178.68V13.8981H174.291V18.7627H171.981V7.6441H171.981ZM183.531 7.6441H190V9.49731H185.726V18.7627H183.416V7.6441H183.531ZM100.255 35.4404H105.221C107.069 35.4404 108.224 34.9772 109.033 33.9347C109.379 33.4715 109.957 32.5449 109.957 30.8076C109.957 29.0704 109.379 27.9119 108.224 26.9856C107.531 26.5225 106.607 26.1749 105.106 26.1749H100.139V35.4404H100.255ZM93.6715 41V7.6441H115.386L113.538 13.2034H100.255V20.6156H105.684C109.957 20.6156 112.267 21.6582 113.769 22.932C114.924 23.9745 117.003 26.2906 117.003 30.808C117.003 35.3247 114.924 37.757 113.076 39.0312C110.997 40.4209 108.802 40.8841 104.413 40.8841H93.6718V41H93.6715ZM74.498 41V13.2034H64.911V7.6441H91.7074L89.8596 13.2034H81.3127V41H74.498ZM47.7016 20.9631H51.3976C52.5529 20.9631 53.1301 20.9631 53.7076 20.8475C55.2091 20.3844 56.2485 18.9943 56.2485 17.1414C56.2485 14.941 55.2091 13.8985 53.7076 13.4353C53.1301 13.2037 52.5526 13.0878 51.2819 13.0878H47.8169V20.9635H47.7016V20.9631ZM47.8172 26.7544V35.5563H52.4373C53.8235 35.5563 55.0942 35.4407 56.0179 34.6297C56.9416 33.8187 57.2882 32.6609 57.2882 31.2711C57.2882 30.2289 56.942 29.1867 56.4798 28.3757C55.5557 27.2172 54.2854 26.87 52.2063 26.87H47.8172V26.7544ZM58.4435 23.2798C59.7139 23.8586 60.8692 24.6696 61.562 25.1327C63.5258 26.7544 64.3342 28.8388 64.3342 31.6186C64.3342 36.1354 61.9086 39.4943 57.9813 40.5365C56.8263 40.884 55.5557 41 53.1301 41H41.1182V7.6441H51.7445C53.9388 7.6441 55.4404 7.76004 56.711 8.10724C60.5223 9.14979 63.0636 11.8133 63.0636 15.9829C63.0636 18.1833 62.2551 20.1525 60.9848 21.4266C60.5223 22.0054 59.7139 22.7004 58.4435 23.2798Z" fill="#263975"/>
<path d="M34.3035 5.09585H6.12126L8.20033 0H36.3826L34.3035 5.09585ZM33.2642 7.6441H5.08189L3.00281 12.74H31.1854L33.2642 7.6441ZM30.261 15.1723H2.07875L0 20.2681H28.1823L30.261 15.1723Z" fill="#009FDF"/>
</svg>
