<svg width="51" height="67" viewBox="0 0 51 67" fill="none" xmlns="http://www.w3.org/2000/svg">
<path d="M25.5 67C25.5 67 50.625 43.1899 50.625 25.125C50.625 18.4614 47.9779 12.0708 43.2661 7.35894C38.5542 2.64709 32.1636 0 25.5 0C18.8364 0 12.4458 2.64709 7.73394 7.35894C3.02209 12.0708 0.375 18.4614 0.375 25.125C0.375 43.1899 25.5 67 25.5 67ZM25.5 37.6875C22.1682 37.6875 18.9729 36.364 16.617 34.008C14.261 31.6521 12.9375 28.4568 12.9375 25.125C12.9375 21.7932 14.261 18.5979 16.617 16.242C18.9729 13.886 22.1682 12.5625 25.5 12.5625C28.8318 12.5625 32.0271 13.886 34.383 16.242C36.739 18.5979 38.0625 21.7932 38.0625 25.125C38.0625 28.4568 36.739 31.6521 34.383 34.008C32.0271 36.364 28.8318 37.6875 25.5 37.6875Z" fill="#263975"/>
</svg>
