<svg width="15" height="15" viewBox="0 0 15 15" fill="none" xmlns="http://www.w3.org/2000/svg">
<path d="M8.08333 10.2083H7.375V7.375H6.66667M7.375 4.54167H7.38208M13.75 7.375C13.75 8.21218 13.5851 9.04116 13.2647 9.81461C12.9444 10.5881 12.4748 11.2908 11.8828 11.8828C11.2908 12.4748 10.5881 12.9444 9.81461 13.2647C9.04116 13.5851 8.21218 13.75 7.375 13.75C6.53782 13.75 5.70884 13.5851 4.93539 13.2647C4.16194 12.9444 3.45917 12.4748 2.86719 11.8828C2.27522 11.2908 1.80564 10.5881 1.48527 9.81461C1.16489 9.04116 1 8.21218 1 7.375C1 5.68424 1.67165 4.06274 2.86719 2.86719C4.06274 1.67165 5.68424 1 7.375 1C9.06575 1 10.6873 1.67165 11.8828 2.86719C13.0783 4.06274 13.75 5.68424 13.75 7.375Z" stroke="#042033" stroke-opacity="0.21" stroke-width="2" stroke-linecap="round" stroke-linejoin="round"/>
</svg>
