<svg width="19" height="18" viewBox="0 0 19 18" fill="none" xmlns="http://www.w3.org/2000/svg">
<path d="M18.2157 9C18.2157 13.9706 14.1515 18 9.13813 18C4.12472 18 0.0605469 13.9706 0.0605469 9C0.0605469 4.02944 4.12472 0 9.13813 0C14.1515 0 18.2157 4.02944 18.2157 9Z" fill="white"/>
<path d="M9.13802 4.76465L9.76243 7.50535L12.1586 6.00514L10.6455 8.38086L13.4098 8.99994L10.6455 9.61902L12.1586 11.9947L9.76243 10.4945L9.13802 13.2352L8.5136 10.4945L6.11739 11.9947L7.63054 9.61902L4.86621 8.99994L7.63054 8.38086L6.11739 6.00514L8.5136 7.50535L9.13802 4.76465Z" fill="#009FDF"/>
</svg>
