<svg width="18" height="18" viewBox="0 0 18 18" fill="none" xmlns="http://www.w3.org/2000/svg">
<path d="M18 9C18 13.9706 13.9706 18 9 18C4.02944 18 0 13.9706 0 9C0 4.02944 4.02944 0 9 0C13.9706 0 18 4.02944 18 9Z" fill="#009FDF"/>
<path d="M8.99994 4.76465L9.61902 7.50535L11.9947 6.00514L10.4945 8.38086L13.2352 8.99994L10.4945 9.61902L11.9947 11.9947L9.61902 10.4945L8.99994 13.2352L8.38086 10.4945L6.00514 11.9947L7.50535 9.61902L4.76465 8.99994L7.50535 8.38086L6.00514 6.00514L8.38086 7.50535L8.99994 4.76465Z" fill="white"/>
</svg>
